<mxfile host="drawio-plugin" modified="2022-08-17T09:21:16.834Z" agent="5.0 (Macintosh; Intel Mac OS X 11_6_8) AppleWebKit/537.36 (KHTML, like Gecko) Chrome/89.0.4389.114 Safari/537.36" version="15.5.4" etag="1wM9o-eDxHFDm4Ez9Rni" type="embed"><diagram id="zA9RCPuOkXNWLJzFe3ot" name="Page-1"><mxGraphModel dx="1251" dy="743" grid="1" gridSize="10" guides="1" tooltips="1" connect="1" arrows="1" fold="1" page="1" pageScale="1" pageWidth="1100" pageHeight="850" math="0" shadow="0"><root><mxCell id="0"/><mxCell id="1" parent="0"/><mxCell id="18" value="" style="whiteSpace=wrap;html=1;aspect=fixed;" vertex="1" parent="1"><mxGeometry x="420" y="5" width="412" height="412" as="geometry"/></mxCell><mxCell id="6" style="edgeStyle=orthogonalEdgeStyle;rounded=0;orthogonalLoop=1;jettySize=auto;html=1;" edge="1" parent="1" source="2" target="3"><mxGeometry relative="1" as="geometry"/></mxCell><mxCell id="7" style="edgeStyle=orthogonalEdgeStyle;rounded=0;orthogonalLoop=1;jettySize=auto;html=1;" edge="1" parent="1" source="2" target="4"><mxGeometry relative="1" as="geometry"/></mxCell><mxCell id="10" style="edgeStyle=orthogonalEdgeStyle;rounded=0;orthogonalLoop=1;jettySize=auto;html=1;" edge="1" parent="1" source="2" target="9"><mxGeometry relative="1" as="geometry"/></mxCell><mxCell id="2" value="ML Flow" style="rounded=1;whiteSpace=wrap;html=1;" vertex="1" parent="1"><mxGeometry x="490" y="190" width="120" height="60" as="geometry"/></mxCell><mxCell id="3" value="Postgres" style="shape=cylinder3;whiteSpace=wrap;html=1;boundedLbl=1;backgroundOutline=1;size=15;" vertex="1" parent="1"><mxGeometry x="740" y="180" width="60" height="80" as="geometry"/></mxCell><mxCell id="4" value="Blob Store (models)" style="sketch=0;outlineConnect=0;fontColor=#232F3E;gradientColor=none;fillColor=#6CAE3E;strokeColor=none;dashed=0;verticalLabelPosition=bottom;verticalAlign=top;align=center;html=1;fontSize=12;fontStyle=0;aspect=fixed;pointerEvents=1;shape=mxgraph.aws4.bucket_with_objects;" vertex="1" parent="1"><mxGeometry x="513" y="10" width="75" height="78" as="geometry"/></mxCell><mxCell id="5" value="Model Metadata" style="text;html=1;strokeColor=none;fillColor=none;align=center;verticalAlign=middle;whiteSpace=wrap;rounded=0;" vertex="1" parent="1"><mxGeometry x="740" y="270" width="60" height="30" as="geometry"/></mxCell><mxCell id="8" value="Ubuntu" style="rounded=0;whiteSpace=wrap;html=1;" vertex="1" parent="1"><mxGeometry x="490.5" y="260" width="120" height="40" as="geometry"/></mxCell><mxCell id="16" style="edgeStyle=orthogonalEdgeStyle;rounded=0;orthogonalLoop=1;jettySize=auto;html=1;entryX=0;entryY=0.5;entryDx=0;entryDy=0;entryPerimeter=0;exitX=0.5;exitY=1;exitDx=0;exitDy=0;" edge="1" parent="1" source="9" target="13"><mxGeometry relative="1" as="geometry"/></mxCell><mxCell id="9" value="In Process&lt;br&gt;ML Model Executiom" style="whiteSpace=wrap;html=1;aspect=fixed;" vertex="1" parent="1"><mxGeometry x="240" y="180" width="80" height="80" as="geometry"/></mxCell><mxCell id="11" value="&lt;h1&gt;Steps&lt;/h1&gt;&lt;p&gt;&lt;ol&gt;&lt;li&gt;init (Get model from repository)&lt;/li&gt;&lt;li&gt;predict&lt;/li&gt;&lt;li&gt;clean up script&lt;/li&gt;&lt;/ol&gt;&lt;/p&gt;" style="text;html=1;strokeColor=none;fillColor=none;spacing=5;spacingTop=-20;whiteSpace=wrap;overflow=hidden;rounded=0;" vertex="1" parent="1"><mxGeometry x="185" y="425" width="190" height="120" as="geometry"/></mxCell><mxCell id="14" style="edgeStyle=orthogonalEdgeStyle;rounded=0;orthogonalLoop=1;jettySize=auto;html=1;entryX=0.5;entryY=0;entryDx=0;entryDy=0;" edge="1" parent="1" source="12" target="9"><mxGeometry relative="1" as="geometry"/></mxCell><mxCell id="12" value="Brain Input Topic" style="verticalLabelPosition=bottom;html=1;verticalAlign=top;align=center;strokeColor=none;fillColor=#00BEF2;shape=mxgraph.azure.queue_generic;pointerEvents=1;" vertex="1" parent="1"><mxGeometry x="170" y="100" width="50" height="15" as="geometry"/></mxCell><mxCell id="13" value="Brain Output Topic" style="verticalLabelPosition=bottom;html=1;verticalAlign=top;align=center;strokeColor=none;fillColor=#00BEF2;shape=mxgraph.azure.queue_generic;pointerEvents=1;" vertex="1" parent="1"><mxGeometry x="350" y="320" width="50" height="15" as="geometry"/></mxCell><mxCell id="17" value="&lt;h1&gt;Intialization&lt;/h1&gt;&lt;p&gt;&lt;/p&gt;&lt;ol&gt;&lt;li&gt;init (Get model from repository)&lt;/li&gt;&lt;li&gt;predict&lt;/li&gt;&lt;li&gt;clean up script&lt;/li&gt;&lt;/ol&gt;&lt;p&gt;&lt;/p&gt;" style="text;html=1;strokeColor=none;fillColor=none;spacing=5;spacingTop=-20;whiteSpace=wrap;overflow=hidden;rounded=0;" vertex="1" parent="1"><mxGeometry x="470" y="435" width="190" height="120" as="geometry"/></mxCell><mxCell id="19" value="On Boarding UI" style="rounded=1;whiteSpace=wrap;html=1;" vertex="1" parent="1"><mxGeometry x="880" y="200" width="120" height="60" as="geometry"/></mxCell></root></mxGraphModel></diagram></mxfile>